Coordinates
version=1
nRows=13
nColumns=38
inDegrees=no

Units are S.I. units (second, meters, Newtons, ...)
If the header above contains a line with 'inDegrees', this indicates whether rotational values are in degrees (yes) or radians (no).

endheader
time	pelvis_tilt	pelvis_list	pelvis_rotation	pelvis_tx	pelvis_ty	pelvis_tz	hip_flexion_r	hip_adduction_r	hip_rotation_r	knee_angle_r	ankle_angle_r	subtalar_angle_r	mtp_angle_r	hip_flexion_l	hip_adduction_l	hip_rotation_l	knee_angle_l	ankle_angle_l	subtalar_angle_l	mtp_angle_l	lumbar_extension	lumbar_bending	lumbar_rotation	arm_flex_r	arm_add_r	arm_rot_r	elbow_flex_r	pro_sup_r	wrist_flex_r	wrist_dev_r	arm_flex_l	arm_add_l	arm_rot_l	elbow_flex_l	pro_sup_l	wrist_flex_l	wrist_dev_l
0	3.04624	1.51901	1.64019	0.650595	1.86639	0.959947	0.00504377	-0.00657626	-0.0614934	0.0551604	0.0182064	0	0	-0.0576095	0.0102368	-0.15765	0.00173554	0.0423801	0	0	0.0355565	-0.0303258	0.0113864	-0.0901674	-0.0828204	-0.203169	0.408961	1.55526	0	0	-0.0429255	-0.321621	0.205155	0.522412	1.06311	0	0
0.01	3.13377	1.52414	1.54985	0.651403	1.86571	0.960371	0.00511597	-0.00579928	-0.0717342	0.067459	0.0238066	0	0	-0.0627981	0.00672389	-0.162118	0.00454214	0.0451553	0	0	0.0320092	-0.0227188	0.0104036	-0.0704865	-0.0791821	-0.245923	0.370381	1.5708	0	0	-0.037266	-0.313893	0.197569	0.516174	1.0616	0	0
0.02	-3.11029	1.52446	1.51041	0.652223	1.86489	0.960713	0.0037896	-0.00566943	-0.0720081	0.0674409	0.0220605	0	0	-0.0615479	0.00571141	-0.164983	0.00946051	0.0469409	0	0	0.0349524	-0.0207705	0.00792745	-0.0692521	-0.0801039	-0.250362	0.364295	1.5708	0	0	-0.0341034	-0.308801	0.193302	0.512615	1.05875	0	0
0.03	-3.07635	1.52417	1.4767	0.653091	1.86405	0.960985	0.00212878	-0.00535008	-0.0716733	0.0657029	0.019705	0	0	-0.0598314	0.00478874	-0.168176	0.0141806	0.0491727	0	0	0.0386905	-0.0188485	0.00481598	-0.0693011	-0.0819432	-0.247586	0.360687	1.5708	0	0	-0.0319781	-0.303093	0.188445	0.510232	1.0521	0	0
0.04	-3.04889	1.52403	1.44938	0.653914	1.86317	0.961211	-0.00042718	-0.00494941	-0.071277	0.0626251	0.0170064	0	0	-0.0596339	0.00426112	-0.170034	0.0164469	0.0503426	0	0	0.0422326	-0.0172004	0.00195032	-0.0709288	-0.0843357	-0.239922	0.360705	1.5708	0	0	-0.0310285	-0.29832	0.188909	0.510647	1.0378	0	0
0.05	-3.02323	1.52457	1.42326	0.654635	1.86228	0.96142	-0.00429287	-0.00429215	-0.0703318	0.0583561	0.013838	0	0	-0.0616734	0.00404456	-0.170969	0.0160294	0.0504826	0	0	0.0448943	-0.0157832	0.000162015	-0.0730331	-0.0865728	-0.23286	0.362118	1.5708	0	0	-0.0305842	-0.294996	0.197738	0.513142	1.01446	0	0
0.06	-3.00042	1.52587	1.40008	0.655385	1.86138	0.961614	-0.00944457	-0.0036844	-0.0693057	0.0530914	0.010413	0	0	-0.0656927	0.00435495	-0.170349	0.0133205	0.0496641	0	0	0.046514	-0.014603	-0.00128549	-0.0752585	-0.0885131	-0.227734	0.364113	1.5708	0	0	-0.0300895	-0.292892	0.214836	0.51652	0.980099	0	0
0.07	-2.98533	1.52751	1.38486	0.656194	1.86046	0.961751	-0.0151242	-0.0034612	-0.0681659	0.0475957	0.00761232	0	0	-0.070694	0.005382	-0.169384	0.00932118	0.0484976	0	0	0.0476925	-0.0137705	-0.00294863	-0.0774676	-0.0902363	-0.222976	0.366001	1.5708	0	0	-0.0296317	-0.291438	0.237064	0.51933	0.942764	0	0
0.08	-2.97326	1.52933	1.37259	0.656999	1.85952	0.961806	-0.0207655	-0.0034577	-0.0668227	0.0426794	0.00582511	0	0	-0.0763858	0.00682985	-0.168469	0.00429672	0.0471395	0	0	0.0488136	-0.0131138	-0.0042968	-0.078985	-0.0915777	-0.220531	0.366156	1.5708	0	0	-0.0285115	-0.290298	0.263889	0.519831	0.905723	0	0
0.09	-2.96249	1.53102	1.36165	0.657781	1.85857	0.961761	-0.0260584	-0.00365061	-0.0657405	0.0383345	0.00493463	0	0	-0.0822337	0.00840404	-0.167517	0	0.0460237	0	0	0.0501178	-0.0124707	-0.00563527	-0.0792957	-0.092459	-0.220895	0.363261	1.5708	0	0	-0.026619	-0.288601	0.291517	0.516132	0.877679	0	0
0.1	-2.95728	1.53205	1.35637	0.658515	1.85757	0.961589	-0.0303505	-0.00405525	-0.0649498	0.034605	0.00469575	0	0	-0.0869758	0.00997869	-0.16725	0	0.0460591	0	0	0.0519669	-0.0118232	-0.00780676	-0.0781771	-0.0929928	-0.222029	0.357101	1.5708	0	0	-0.0244232	-0.284919	0.313542	0.506999	0.864761	0	0
0.11	-2.95606	1.53263	1.35517	0.659202	1.85653	0.961334	-0.0339059	-0.00461758	-0.0641011	0.0314125	0.004845	0	0	-0.0910048	0.011548	-0.167019	0	0.0464689	0	0	0.0541234	-0.0111974	-0.0105003	-0.0757567	-0.0932885	-0.223664	0.347913	1.5708	0	0	-0.0221832	-0.280161	0.334293	0.494499	0.856012	0	0
0.12	-2.94574	1.53412	1.34474	0.659895	1.85558	0.961115	-0.0381911	-0.00525241	-0.0630046	0.0286713	0.00532869	0	0	-0.095549	0.0129552	-0.167307	0	0.0474013	0	0	0.0558058	-0.0106168	-0.0125749	-0.0719469	-0.093617	-0.225119	0.335345	1.5708	0	0	-0.0182778	-0.2745	0.35784	0.477348	0.850844	0	0
